
            <svg data-logo="logo" xmlns="http://www.w3.org/2000/svg" viewBox="0 0 272 40">
                <g id="logogram" transform="translate(0, 0)"><path d="M20.0277 10C20.0277 15.5228 15.5506 20 10.0277 20H0.02771V10C0.02771 4.47715 4.50486 0 10.0277 0C15.5506 0 20.0277 4.47715 20.0277 10Z" fill="#17CF97"/><path d="M20.0277 30C20.0277 24.4772 24.5049 20 30.0277 20H40.0277V30C40.0277 35.5228 35.5506 40 30.0277 40C24.5049 40 20.0277 35.5228 20.0277 30Z" fill="#17CF97"/><path d="M0.02771 30C0.02771 35.5228 4.50486 40 10.0277 40H20.0277V30C20.0277 24.4772 15.5506 20 10.0277 20C4.50486 20 0.02771 24.4772 0.02771 30Z" fill="#17CF97"/><path d="M40.0277 10C40.0277 4.47715 35.5506 0 30.0277 0H20.0277V10C20.0277 15.5228 24.5049 20 30.0277 20C35.5506 20 40.0277 15.5228 40.0277 10Z" fill="#17CF97"/></g>
                <g id="logotype" transform="translate(44, 0.5)"><path fill="#000000" d="M5.85 32L5.85 32Q5.14 32 4.66 31.52Q4.18 31.04 4.18 30.34L4.18 30.34L4.18 8.67Q4.18 7.94 4.66 7.47Q5.14 7.01 5.85 7.01L5.85 7.01L20.31 7.01Q21.05 7.01 21.50 7.44Q21.94 7.87 21.94 8.58L21.94 8.58Q21.94 9.25 21.50 9.66Q21.05 10.08 20.31 10.08L20.31 10.08L7.51 10.08L7.51 17.86L16.70 17.86Q17.43 17.86 17.88 18.29Q18.33 18.72 18.33 19.39L18.33 19.39Q18.33 20.06 17.88 20.50Q17.43 20.93 16.70 20.93L16.70 20.93L7.51 20.93L7.51 30.34Q7.51 31.04 7.03 31.52Q6.55 32 5.85 32ZM26.39 32L26.39 32Q25.69 32 25.22 31.54Q24.76 31.07 24.76 30.37L24.76 30.37L24.76 16.13Q24.76 15.39 25.22 14.94Q25.69 14.50 26.39 14.50L26.39 14.50Q27.13 14.50 27.58 14.94Q28.02 15.39 28.02 16.13L28.02 16.13L28.02 30.37Q28.02 31.07 27.58 31.54Q27.13 32 26.39 32ZM26.39 11.65L26.39 11.65Q25.53 11.65 24.90 11.02Q24.28 10.40 24.28 9.54L24.28 9.54Q24.28 8.67 24.90 8.05Q25.53 7.42 26.39 7.42L26.39 7.42Q27.26 7.42 27.88 8.05Q28.50 8.67 28.50 9.54L28.50 9.54Q28.50 10.40 27.88 11.02Q27.26 11.65 26.39 11.65ZM47.45 32.03L47.45 32.03Q46.74 32.03 46.28 31.57Q45.82 31.10 45.82 30.40L45.82 30.40L45.82 22.53Q45.82 20.70 45.14 19.55Q44.47 18.40 43.34 17.84Q42.20 17.28 40.73 17.28L40.73 17.28Q39.38 17.28 38.30 17.82Q37.21 18.37 36.57 19.28Q35.93 20.19 35.93 21.38L35.93 21.38L33.91 21.38Q33.91 19.36 34.89 17.78Q35.86 16.19 37.56 15.26Q39.26 14.34 41.37 14.34L41.37 14.34Q43.58 14.34 45.32 15.28Q47.06 16.22 48.07 18.05Q49.08 19.87 49.08 22.53L49.08 22.53L49.08 30.40Q49.08 31.10 48.62 31.57Q48.15 32.03 47.45 32.03ZM34.30 32.03L34.30 32.03Q33.59 32.03 33.13 31.57Q32.66 31.10 32.66 30.40L32.66 30.40L32.66 16.13Q32.66 15.39 33.13 14.94Q33.59 14.50 34.30 14.50L34.30 14.50Q35.03 14.50 35.48 14.94Q35.93 15.39 35.93 16.13L35.93 16.13L35.93 30.40Q35.93 31.10 35.48 31.57Q35.03 32.03 34.30 32.03ZM60.34 32.13L60.34 32.13Q58.01 32.13 56.15 30.96Q54.30 29.79 53.22 27.79Q52.15 25.79 52.15 23.26L52.15 23.26Q52.15 20.74 53.32 18.72Q54.49 16.70 56.49 15.54Q58.49 14.37 60.98 14.37L60.98 14.37Q63.48 14.37 65.46 15.54Q67.45 16.70 68.62 18.72Q69.78 20.74 69.78 23.26L69.78 23.26L68.54 23.26Q68.54 25.79 67.46 27.79Q66.39 29.79 64.54 30.96Q62.68 32.13 60.34 32.13ZM60.98 29.25L60.98 29.25Q62.62 29.25 63.90 28.46Q65.18 27.68 65.91 26.32Q66.65 24.96 66.65 23.26L66.65 23.26Q66.65 21.54 65.91 20.18Q65.18 18.82 63.90 18.03Q62.62 17.25 60.98 17.25L60.98 17.25Q59.38 17.25 58.09 18.03Q56.79 18.82 56.04 20.18Q55.29 21.54 55.29 23.26L55.29 23.26Q55.29 24.96 56.04 26.32Q56.79 27.68 58.09 28.46Q59.38 29.25 60.98 29.25ZM68.15 32.03L68.15 32.03Q67.45 32.03 66.98 31.57Q66.52 31.10 66.52 30.40L66.52 30.40L66.52 25.50L67.13 22.11L69.78 23.26L69.78 30.40Q69.78 31.10 69.32 31.57Q68.86 32.03 68.15 32.03ZM87.99 32.03L87.99 32.03Q87.29 32.03 86.82 31.57Q86.36 31.10 86.36 30.40L86.36 30.40L86.36 22.53Q86.36 20.70 85.69 19.55Q85.02 18.40 83.88 17.84Q82.74 17.28 81.27 17.28L81.27 17.28Q79.93 17.28 78.84 17.82Q77.75 18.37 77.11 19.28Q76.47 20.19 76.47 21.38L76.47 21.38L74.46 21.38Q74.46 19.36 75.43 17.78Q76.41 16.19 78.10 15.26Q79.80 14.34 81.91 14.34L81.91 14.34Q84.12 14.34 85.86 15.28Q87.61 16.22 88.62 18.05Q89.62 19.87 89.62 22.53L89.62 22.53L89.62 30.40Q89.62 31.10 89.16 31.57Q88.70 32.03 87.99 32.03ZM74.84 32.03L74.84 32.03Q74.14 32.03 73.67 31.57Q73.21 31.10 73.21 30.40L73.21 30.40L73.21 16.13Q73.21 15.39 73.67 14.94Q74.14 14.50 74.84 14.50L74.84 14.50Q75.58 14.50 76.02 14.94Q76.47 15.39 76.47 16.13L76.47 16.13L76.47 30.40Q76.47 31.10 76.02 31.57Q75.58 32.03 74.84 32.03ZM101.53 32.13L101.53 32.13Q98.97 32.13 96.97 30.96Q94.97 29.79 93.83 27.79Q92.70 25.79 92.70 23.26L92.70 23.26Q92.70 20.67 93.82 18.66Q94.94 16.64 96.89 15.50Q98.84 14.37 101.37 14.37L101.37 14.37Q103.26 14.37 104.82 15.09Q106.39 15.81 107.64 17.25L107.64 17.25Q108.09 17.76 107.96 18.30Q107.83 18.85 107.26 19.26L107.26 19.26Q106.81 19.58 106.26 19.47Q105.72 19.36 105.27 18.91L105.27 18.91Q103.70 17.25 101.37 17.25L101.37 17.25Q99.74 17.25 98.49 18Q97.24 18.75 96.54 20.10Q95.83 21.44 95.83 23.26L95.83 23.26Q95.83 24.99 96.55 26.34Q97.27 27.68 98.55 28.46Q99.83 29.25 101.53 29.25L101.53 29.25Q102.65 29.25 103.50 28.98Q104.34 28.70 105.05 28.13L105.05 28.13Q105.56 27.71 106.10 27.66Q106.65 27.62 107.06 27.97L107.06 27.97Q107.61 28.42 107.67 28.98Q107.74 29.54 107.29 29.98L107.29 29.98Q104.98 32.13 101.53 32.13ZM100.95 39.49L100.95 39.49Q99.03 39.49 97.80 38.69Q96.57 37.89 96.57 36.80L96.57 36.80Q96.57 36.16 97.02 35.71Q97.46 35.26 98.07 35.26L98.07 35.26Q98.46 35.26 98.73 35.44Q99 35.62 99.16 36.06L99.16 36.06Q99.38 36.64 99.88 36.91Q100.38 37.18 100.98 37.18L100.98 37.18Q101.62 37.18 102.04 36.88Q102.46 36.58 102.46 36.06L102.46 36.06Q102.46 35.49 102.14 35.14Q101.82 34.78 101.02 34.66L101.02 34.66Q100.02 34.50 99.62 34Q99.22 33.50 99.58 32.48L99.58 32.48L99.90 31.58Q100.12 30.94 100.57 30.61Q101.02 30.27 101.72 30.27L101.72 30.27Q102.52 30.27 102.92 30.78Q103.32 31.30 102.97 32.03L102.97 32.03L102.49 33.12Q104.15 33.47 104.92 34.21Q105.69 34.94 105.69 36.16L105.69 36.16Q105.69 36.99 105.11 37.76Q104.54 38.53 103.48 39.01Q102.42 39.49 100.95 39.49ZM118.68 32.13L118.68 32.13Q116.34 32.13 114.49 30.96Q112.63 29.79 111.56 27.79Q110.49 25.79 110.49 23.26L110.49 23.26Q110.49 20.74 111.66 18.72Q112.82 16.70 114.82 15.54Q116.82 14.37 119.32 14.37L119.32 14.37Q121.82 14.37 123.80 15.54Q125.78 16.70 126.95 18.72Q128.12 20.74 128.12 23.26L128.12 23.26L126.87 23.26Q126.87 25.79 125.80 27.79Q124.73 29.79 122.87 30.96Q121.02 32.13 118.68 32.13ZM119.32 29.25L119.32 29.25Q120.95 29.25 122.23 28.46Q123.51 27.68 124.25 26.32Q124.98 24.96 124.98 23.26L124.98 23.26Q124.98 21.54 124.25 20.18Q123.51 18.82 122.23 18.03Q120.95 17.25 119.32 17.25L119.32 17.25Q117.72 17.25 116.42 18.03Q115.13 18.82 114.38 20.18Q113.62 21.54 113.62 23.26L113.62 23.26Q113.62 24.96 114.38 26.32Q115.13 27.68 116.42 28.46Q117.72 29.25 119.32 29.25ZM126.49 32.03L126.49 32.03Q125.78 32.03 125.32 31.57Q124.86 31.10 124.86 30.40L124.86 30.40L124.86 25.50L125.46 22.11L128.12 23.26L128.12 30.40Q128.12 31.10 127.66 31.57Q127.19 32.03 126.49 32.03ZM137.91 32.13L137.91 32.13Q135.67 32.13 133.77 31.44Q131.86 30.75 130.81 29.70L130.81 29.70Q130.33 29.18 130.41 28.53Q130.49 27.87 131.03 27.46L131.03 27.46Q131.67 26.94 132.30 27.02Q132.92 27.10 133.37 27.58L133.37 27.58Q133.91 28.19 135.11 28.72Q136.31 29.25 137.78 29.25L137.78 29.25Q139.64 29.25 140.62 28.64Q141.59 28.03 141.62 27.07L141.62 27.07Q141.66 26.11 140.71 25.41Q139.77 24.70 137.27 24.26L137.27 24.26Q134.04 23.62 132.58 22.34Q131.13 21.06 131.13 19.20L131.13 19.20Q131.13 17.57 132.09 16.50Q133.05 15.42 134.55 14.90Q136.06 14.37 137.69 14.37L137.69 14.37Q139.80 14.37 141.43 15.04Q143.06 15.71 144.02 16.90L144.02 16.90Q144.47 17.41 144.44 17.97Q144.41 18.53 143.90 18.91L143.90 18.91Q143.38 19.26 142.68 19.14Q141.98 19.01 141.50 18.56L141.50 18.56Q140.70 17.79 139.77 17.50Q138.84 17.22 137.62 17.22L137.62 17.22Q136.22 17.22 135.24 17.70Q134.26 18.18 134.26 19.10L134.26 19.10Q134.26 19.68 134.57 20.14Q134.87 20.61 135.77 20.98Q136.66 21.34 138.39 21.70L138.39 21.70Q140.79 22.18 142.18 22.91Q143.58 23.65 144.18 24.62Q144.79 25.60 144.79 26.88L144.79 26.88Q144.79 28.35 144.01 29.54Q143.22 30.72 141.70 31.42Q140.18 32.13 137.91 32.13ZM155.38 32L155.38 32Q154.68 32 154.20 31.52Q153.72 31.04 153.72 30.34L153.72 30.34L153.72 8.67Q153.72 7.94 154.20 7.47Q154.68 7.01 155.38 7.01L155.38 7.01L169.85 7.01Q170.58 7.01 171.03 7.44Q171.48 7.87 171.48 8.58L171.48 8.58Q171.48 9.25 171.03 9.66Q170.58 10.08 169.85 10.08L169.85 10.08L157.05 10.08L157.05 17.86L166.23 17.86Q166.97 17.86 167.42 18.29Q167.86 18.72 167.86 19.39L167.86 19.39Q167.86 20.06 167.42 20.50Q166.97 20.93 166.23 20.93L166.23 20.93L157.05 20.93L157.05 30.34Q157.05 31.04 156.57 31.52Q156.09 32 155.38 32ZM181.27 32.13L181.27 32.13Q178.94 32.13 177.08 30.96Q175.22 29.79 174.15 27.79Q173.08 25.79 173.08 23.26L173.08 23.26Q173.08 20.74 174.25 18.72Q175.42 16.70 177.42 15.54Q179.42 14.37 181.91 14.37L181.91 14.37Q184.41 14.37 186.39 15.54Q188.38 16.70 189.54 18.72Q190.71 20.74 190.71 23.26L190.71 23.26L189.46 23.26Q189.46 25.79 188.39 27.79Q187.32 29.79 185.46 30.96Q183.61 32.13 181.27 32.13ZM181.91 29.25L181.91 29.25Q183.54 29.25 184.82 28.46Q186.10 27.68 186.84 26.32Q187.58 24.96 187.58 23.26L187.58 23.26Q187.58 21.54 186.84 20.18Q186.10 18.82 184.82 18.03Q183.54 17.25 181.91 17.25L181.91 17.25Q180.31 17.25 179.02 18.03Q177.72 18.82 176.97 20.18Q176.22 21.54 176.22 23.26L176.22 23.26Q176.22 24.96 176.97 26.32Q177.72 27.68 179.02 28.46Q180.31 29.25 181.91 29.25ZM189.08 32.03L189.08 32.03Q188.38 32.03 187.91 31.57Q187.45 31.10 187.45 30.40L187.45 30.40L187.45 25.50L188.06 22.11L190.71 23.26L190.71 30.40Q190.71 31.10 190.25 31.57Q189.78 32.03 189.08 32.03ZM202.07 32.13L202.07 32.13Q199.51 32.13 197.51 30.96Q195.51 29.79 194.38 27.79Q193.24 25.79 193.24 23.26L193.24 23.26Q193.24 20.67 194.36 18.66Q195.48 16.64 197.43 15.50Q199.38 14.37 201.91 14.37L201.91 14.37Q203.80 14.37 205.37 15.09Q206.94 15.81 208.18 17.25L208.18 17.25Q208.63 17.76 208.50 18.30Q208.38 18.85 207.80 19.26L207.80 19.26Q207.35 19.58 206.81 19.47Q206.26 19.36 205.82 18.91L205.82 18.91Q204.25 17.25 201.91 17.25L201.91 17.25Q200.28 17.25 199.03 18Q197.78 18.75 197.08 20.10Q196.38 21.44 196.38 23.26L196.38 23.26Q196.38 24.99 197.10 26.34Q197.82 27.68 199.10 28.46Q200.38 29.25 202.07 29.25L202.07 29.25Q203.19 29.25 204.04 28.98Q204.89 28.70 205.59 28.13L205.59 28.13Q206.10 27.71 206.65 27.66Q207.19 27.62 207.61 27.97L207.61 27.97Q208.15 28.42 208.22 28.98Q208.28 29.54 207.83 29.98L207.83 29.98Q205.53 32.13 202.07 32.13ZM213.88 32L213.88 32Q213.18 32 212.71 31.54Q212.25 31.07 212.25 30.37L212.25 30.37L212.25 16.13Q212.25 15.39 212.71 14.94Q213.18 14.50 213.88 14.50L213.88 14.50Q214.62 14.50 215.06 14.94Q215.51 15.39 215.51 16.13L215.51 16.13L215.51 30.37Q215.51 31.07 215.06 31.54Q214.62 32 213.88 32ZM213.88 11.65L213.88 11.65Q213.02 11.65 212.39 11.02Q211.77 10.40 211.77 9.54L211.77 9.54Q211.77 8.67 212.39 8.05Q213.02 7.42 213.88 7.42L213.88 7.42Q214.74 7.42 215.37 8.05Q215.99 8.67 215.99 9.54L215.99 9.54Q215.99 10.40 215.37 11.02Q214.74 11.65 213.88 11.65ZM224.38 32L224.31 32Q222.90 32 221.82 31.23Q220.73 30.46 220.12 29.14Q219.51 27.81 219.51 26.08L219.51 26.08L219.51 8.61Q219.51 7.90 219.96 7.46Q220.41 7.01 221.11 7.01L221.11 7.01Q221.82 7.01 222.26 7.46Q222.71 7.90 222.71 8.61L222.71 8.61L222.71 26.08Q222.71 27.26 223.16 28.03Q223.61 28.80 224.31 28.80L224.31 28.80L225.11 28.80Q225.75 28.80 226.15 29.25Q226.55 29.70 226.55 30.40L226.55 30.40Q226.55 31.10 225.94 31.55Q225.34 32 224.38 32L224.38 32Z"/></g>
                
            </svg>
        